<svg width="150" height="100" viewBox="0 0 150 100" fill="none" xmlns="http://www.w3.org/2000/svg">
<path fill-rule="evenodd" clip-rule="evenodd" d="M28.8482 41.6709C25.8672 41.6709 22.4114 43.0954 20.5384 44.5727L22.2531 48.1604C23.7568 46.7886 26.1838 45.6279 28.3733 45.6279C30.4573 45.6279 31.5917 46.3138 31.5917 47.7119C31.5917 48.6616 30.8267 49.1365 29.4021 49.3211C24.0206 50.007 19.7998 51.4843 19.7998 55.6259C19.7998 58.8971 22.1476 60.902 25.7881 60.902C28.3997 60.902 30.7211 59.4511 31.8291 57.5517V60.3744H36.683V48.5297C36.683 43.6494 33.28 41.6709 28.8482 41.6709ZM27.0279 57.1032C25.6562 57.1032 24.9703 56.4437 24.9703 55.3358C24.9703 53.2781 27.2654 52.5922 31.4598 52.1438C31.4862 54.8873 29.6132 57.1032 27.0279 57.1032Z" fill="black"/>
<path fill-rule="evenodd" clip-rule="evenodd" d="M82.4526 45.2586V42.1985H77.5986V60.3744H82.7955V51.6162C82.7955 47.4481 85.3016 46.2346 87.0691 46.2346C87.755 46.2346 88.6783 46.4457 89.285 46.8941L90.2347 42.093C89.4433 41.75 88.5991 41.6709 87.9132 41.6709C85.2488 41.6709 83.5605 42.858 82.4526 45.2586Z" fill="black"/>
<path fill-rule="evenodd" clip-rule="evenodd" d="M114.346 41.6709C111.602 41.6709 109.545 43.3065 108.463 44.8629C107.461 42.8316 105.376 41.6709 102.844 41.6709C100.1 41.6709 98.2011 43.2009 97.3042 44.942V42.1985H92.292V60.3744H97.4889V51.0094C97.4889 47.6592 99.2563 46.05 100.892 46.05C102.369 46.05 103.741 46.9997 103.741 49.4794V60.3744H108.964V51.0094C108.964 47.6064 110.679 46.05 112.394 46.05C113.765 46.05 115.216 47.0524 115.216 49.453V60.3744H120.413V47.8175C120.413 43.7285 117.67 41.6709 114.346 41.6709Z" fill="black"/>
<path fill-rule="evenodd" clip-rule="evenodd" d="M55.044 40.8532V42.1985H47.1563V40.3519C47.1563 37.9514 48.5281 37.2655 49.7152 37.2655C50.4011 37.2655 51.298 37.4238 52.0367 37.8458L53.6458 34.179C52.6962 33.625 51.1397 33.1238 49.0557 33.1238C45.7318 33.1238 41.9595 34.9968 41.9595 40.8795V42.2249H38.9521V46.2347H41.9595V60.3744H47.1563V46.2083H55.044V60.3744H60.2409V46.2083H64.9629V42.1985H60.2409V40.3519C60.2409 37.9514 61.6126 37.2655 62.7997 37.2655C64.1187 37.2655 65.1212 37.8458 65.1212 37.8458L66.7303 34.179C66.7303 34.179 65.0948 33.1238 62.1402 33.1238C58.8427 33.0974 55.044 34.9704 55.044 40.8532Z" fill="black"/>
<path fill-rule="evenodd" clip-rule="evenodd" d="M68.0488 42.1982H73.2457V60.3741H68.0488V42.1982Z" fill="black"/>
<path fill-rule="evenodd" clip-rule="evenodd" d="M98.333 16.8477C84.2988 16.8477 71.7947 26.5819 68.2598 39.1124H73.3511C76.3057 29.7739 86.3565 21.5961 98.333 21.5961C112.895 21.5961 125.452 32.6757 125.452 49.9282C125.452 53.8061 124.951 57.2883 124.001 60.3747H128.934L128.987 60.2165C129.804 57.0245 130.2 53.5687 130.2 49.9282C130.2 30.6972 116.192 16.8477 98.333 16.8477Z" fill="#4A4AF4"/>
</svg>
