<svg width="150" height="100" viewBox="0 0 150 100" fill="none" xmlns="http://www.w3.org/2000/svg">
<path fill-rule="evenodd" clip-rule="evenodd" d="M90.5475 66.4581C83.2835 71.8122 72.7548 74.6688 63.6899 74.6688C50.9793 74.6688 39.5365 69.9677 30.8796 62.1487C30.1995 61.5339 30.8089 60.6959 31.6251 61.1747C40.9675 66.6105 52.5192 69.8806 64.4516 69.8806C72.4991 69.8806 81.3519 68.2156 89.4919 64.7605C90.7216 64.2381 91.75 65.5658 90.5475 66.4581Z" fill="#FF9900"/>
<path fill-rule="evenodd" clip-rule="evenodd" d="M93.5672 63.0033C92.6422 61.8172 87.4296 62.4429 85.0899 62.7204C84.3771 62.8075 84.2683 62.1872 84.9103 61.741C89.062 58.8191 95.8743 59.6625 96.6687 60.6419C97.4631 61.6267 96.4619 68.4554 92.5606 71.7147C91.9621 72.2152 91.3908 71.9486 91.6574 71.2848C92.5334 69.0975 94.4977 64.195 93.5672 63.0033Z" fill="#FF9900"/>
<path fill-rule="evenodd" clip-rule="evenodd" d="M85.2532 41.1139V38.2737C85.2532 37.8438 85.5797 37.5554 85.9715 37.5554H98.6875C99.0955 37.5554 99.422 37.8492 99.422 38.2737V40.7059C99.4166 41.1139 99.0738 41.6472 98.4644 42.4906L91.8751 51.8983C94.3236 51.8385 96.9082 52.203 99.1282 53.4545C99.6288 53.7375 99.7648 54.151 99.8029 54.5591V57.5898C99.8029 58.0033 99.3458 58.4876 98.867 58.2373C94.9548 56.186 89.7585 55.9629 85.4328 58.2591C84.992 58.4985 84.5295 58.0197 84.5295 57.6061V54.7277C84.5295 54.2652 84.535 53.4763 84.9975 52.7744L92.6314 41.8267H85.9878C85.5797 41.8267 85.2532 41.5384 85.2532 41.1139Z" fill="black"/>
<path fill-rule="evenodd" clip-rule="evenodd" d="M38.8673 58.835H34.9986C34.6287 58.8078 34.3348 58.5303 34.3076 58.1767V38.3218C34.3076 37.9246 34.6395 37.609 35.0531 37.609H38.6606C39.036 37.6254 39.3353 37.9138 39.3625 38.2729V40.8683H39.4332C40.3745 38.3599 42.1429 37.1901 44.5261 37.1901C46.9474 37.1901 48.4601 38.3599 49.5483 40.8683C50.4842 38.3599 52.6117 37.1901 54.8916 37.1901C56.513 37.1901 58.2868 37.8593 59.3696 39.3611C60.5939 41.0315 60.3436 43.4583 60.3436 45.5858L60.3382 58.1168C60.3382 58.514 60.0063 58.835 59.5927 58.835H55.7295C55.3432 58.8078 55.033 58.4977 55.033 58.1168V47.5936C55.033 46.7557 55.1092 44.6662 54.9242 43.8718C54.6358 42.5388 53.7707 42.1633 52.6498 42.1633C51.7139 42.1633 50.7345 42.789 50.3373 43.7902C49.9401 44.7914 49.9782 46.4673 49.9782 47.5936V58.1168C49.9782 58.514 49.6463 58.835 49.2327 58.835H45.3695C44.9777 58.8078 44.673 58.4977 44.673 58.1168L44.6676 47.5936C44.6676 45.379 45.0322 42.1198 42.2844 42.1198C39.5039 42.1198 39.6128 45.2974 39.6128 47.5936V58.1168C39.6128 58.514 39.2808 58.835 38.8673 58.835" fill="black"/>
<path fill-rule="evenodd" clip-rule="evenodd" d="M110.37 37.1901C116.11 37.1901 119.217 42.1198 119.217 48.388C119.217 54.444 115.784 59.2486 110.37 59.2486C104.733 59.2486 101.664 54.3189 101.664 48.1758C101.664 41.9946 104.771 37.1901 110.37 37.1901ZM110.403 41.2438C107.551 41.2438 107.372 45.1287 107.372 47.5501C107.372 49.9768 107.334 55.1568 110.37 55.1568C113.368 55.1568 113.509 50.978 113.509 48.4315C113.509 46.7557 113.439 44.7533 112.933 43.1645C112.497 41.7824 111.632 41.2438 110.403 41.2438Z" fill="black"/>
<path fill-rule="evenodd" clip-rule="evenodd" d="M126.661 58.835H122.808C122.422 58.8078 122.112 58.4977 122.112 58.1168L122.106 38.2565C122.139 37.892 122.46 37.609 122.852 37.609H126.438C126.775 37.6254 127.052 37.8539 127.129 38.164V41.2002H127.199C128.282 38.4851 129.8 37.1901 132.472 37.1901C134.208 37.1901 135.9 37.8158 136.988 39.5298C138 41.1186 138 43.7902 138 45.7109V58.2093C137.957 58.5575 137.636 58.835 137.255 58.835H133.375C133.021 58.8078 132.728 58.5467 132.69 58.2093V47.4249C132.69 45.2539 132.94 42.0762 130.268 42.0762C129.327 42.0762 128.462 42.7074 128.032 43.6651C127.488 44.8785 127.417 46.0864 127.417 47.4249V58.1168C127.412 58.514 127.074 58.835 126.661 58.835" fill="black"/>
<path fill-rule="evenodd" clip-rule="evenodd" d="M75.1163 49.3515C75.1163 50.8587 75.1544 52.1156 74.3926 53.4541C73.7778 54.5423 72.7984 55.2116 71.7156 55.2116C70.2301 55.2116 69.3595 54.0798 69.3595 52.4094C69.3595 49.112 72.3141 48.5135 75.1163 48.5135V49.3515ZM79.0176 58.781C78.7619 59.0095 78.3919 59.0258 78.1035 58.8735C76.8194 57.807 76.5854 57.3119 75.8835 56.2944C73.7614 58.46 72.2542 59.1075 69.5064 59.1075C66.2472 59.1075 63.717 57.0997 63.717 53.0787C63.717 49.9391 65.4147 47.8007 67.8414 46.756C69.9417 45.831 72.8745 45.6678 75.1163 45.412V44.9115C75.1163 43.9919 75.187 42.9037 74.6429 42.1093C74.175 41.3965 73.2717 41.1026 72.4719 41.1026C70.9973 41.1026 69.686 41.859 69.365 43.426C69.2997 43.7743 69.0439 44.117 68.6903 44.1334L64.9413 43.7307C64.6257 43.66 64.272 43.4043 64.3645 42.92C65.2242 38.3712 69.3378 37 73.016 37C74.8986 37 77.358 37.5006 78.8435 38.9262C80.7261 40.6837 80.5466 43.0288 80.5466 45.5807V51.6095C80.5466 53.4214 81.2974 54.2159 82.0048 55.1953C82.2497 55.5435 82.3041 55.9625 81.9885 56.2236C81.1995 56.882 79.7957 58.1063 79.023 58.7919L79.0176 58.781" fill="black"/>
<path fill-rule="evenodd" clip-rule="evenodd" d="M24.3992 49.3515C24.3992 50.8587 24.4373 52.1156 23.6756 53.4541C23.0607 54.5423 22.0867 55.2116 20.9985 55.2116C19.5131 55.2116 18.6479 54.0798 18.6479 52.4094C18.6479 49.112 21.6025 48.5135 24.3992 48.5135V49.3515ZM28.3006 58.781C28.0448 59.0095 27.6748 59.0258 27.3864 58.8735C26.1023 57.807 25.8738 57.3119 25.1664 56.2944C23.0444 58.46 21.5426 59.1075 18.7894 59.1075C15.5356 59.1075 13 57.0997 13 53.0787C13 49.9391 14.7031 47.8007 17.1244 46.756C19.2247 45.831 22.1575 45.6678 24.3992 45.412V44.9115C24.3992 43.9919 24.47 42.9037 23.9313 42.1093C23.4579 41.3965 22.5547 41.1026 21.7603 41.1026C20.2857 41.1026 18.969 41.859 18.6479 43.426C18.5826 43.7743 18.3269 44.117 17.9787 44.1334L14.2243 43.7307C13.9087 43.66 13.5604 43.4043 13.6475 42.92C14.5126 38.3712 18.6207 37 22.299 37C24.1816 37 26.641 37.5006 28.1264 38.9262C30.0091 40.6837 29.8295 43.0288 29.8295 45.5807V51.6095C29.8295 53.4214 30.5804 54.2159 31.2878 55.1953C31.5381 55.5435 31.5925 55.9625 31.2769 56.2236C30.4879 56.882 29.0841 58.1063 28.3114 58.7919L28.3006 58.781" fill="black"/>
</svg>
