<svg width="150" height="100" viewBox="0 0 150 100" fill="none" xmlns="http://www.w3.org/2000/svg">
<path d="M61.8771 36.9702V58.0081L64.5843 58.0288V48.0058H71.1148V45.3606H64.5843V39.6155H73.078V36.9702H61.8771V36.9702ZM77.9552 41.2481C78.9265 41.2481 79.7324 40.4628 79.7324 39.4708C79.7324 38.4788 78.9471 37.6935 77.9552 37.6935C76.9839 37.6935 76.1779 38.4788 76.1779 39.4708C76.1779 40.4628 76.9632 41.2481 77.9552 41.2481ZM76.5706 43.8933V58.0288H79.2778V43.8933H76.5706ZM89.3214 43.48C85.7256 43.48 83.225 46.5179 83.225 50.1344C83.225 53.751 85.7256 56.7888 89.3214 56.7888C90.9747 56.7888 92.318 56.1689 93.31 55.1149V56.9955C93.3306 59.3308 91.4707 61.2734 89.1148 61.294C89.0941 61.294 89.0941 61.294 89.0735 61.294C88.2055 61.294 87.3582 60.9634 86.6762 60.4881L85.3122 62.844C88.5361 64.9312 92.8346 64.0013 94.9012 60.7774C95.6245 59.6407 96.0172 58.3388 96.0172 56.9955V43.914H93.31V45.1746C92.318 44.1206 90.9747 43.48 89.3214 43.48ZM85.9322 50.1344C85.9322 47.8818 87.6475 46.1252 89.6314 46.1252C91.6154 46.1252 93.31 47.9025 93.31 50.1344C93.31 52.387 91.5947 54.1229 89.6314 54.1229C87.6475 54.1229 85.9322 52.3663 85.9322 50.1344ZM105.772 46.1252C104.16 46.1459 102.858 47.4685 102.878 49.0805V58.0081H100.171V43.8726H102.878V45.1746C103.705 44.0793 104.986 43.4593 106.371 43.48C108.272 43.48 109.739 44.41 110.566 45.8566C111.517 44.3893 113.129 43.5006 114.865 43.48C117.944 43.48 119.866 45.9599 119.866 49.0391V58.0081H117.179V49.0805C117.179 47.4685 115.898 46.1459 114.286 46.1252C112.674 46.1459 111.372 47.4685 111.393 49.0805V58.0081H108.665V49.0805C108.665 47.4685 107.383 46.1459 105.772 46.1252ZM134.291 45.4846C133.051 44.1826 131.315 43.4593 129.517 43.48C125.487 43.48 122.635 46.8899 122.635 50.9404C122.635 55.0116 125.487 58.4008 129.517 58.4008C131.315 58.4008 133.03 57.6775 134.291 56.3962V58.0081H136.998V43.8726H134.291V45.4846ZM125.342 50.9404C125.342 48.2538 127.409 46.1046 129.827 46.1046C132.224 46.1252 134.291 48.2538 134.291 50.9404C134.291 53.627 132.224 55.7555 129.806 55.7555C127.429 55.7762 125.342 53.6476 125.342 50.9404Z" fill="black"/>
<path d="M26.9104 50.0103C26.9104 46.1665 30.031 43.0459 33.8748 43.0459C37.7187 43.0459 40.8392 46.1665 40.8392 50.0103C40.8392 53.8542 37.7187 56.9747 33.8748 56.9747C30.031 56.9747 26.9104 53.8542 26.9104 50.0103Z" fill="#1ABCFE"/>
<path d="M13.0022 63.9185C13.0022 60.0747 16.1228 56.9541 19.9666 56.9541H26.931V63.9185C26.931 67.7624 23.8105 70.8829 19.9666 70.8829C16.1228 70.8829 13.0022 67.7624 13.0022 63.9185Z" fill="#0ACF83"/>
<path d="M26.9104 29.1379V43.046H33.8748C37.7187 43.046 40.8392 39.9255 40.8392 36.0816C40.8392 32.2377 37.7187 29.1172 33.8748 29.1172H26.9104V29.1379Z" fill="#FF7262"/>
<path d="M13.0022 36.1023C13.0022 39.9462 16.1228 43.0667 19.9666 43.0667H26.931V29.1585H19.9666C16.1228 29.1379 13.0022 32.2584 13.0022 36.1023Z" fill="#F24E1E"/>
<path d="M13.0022 50.0105C13.0022 53.8544 16.1228 56.9749 19.9666 56.9749H26.931V43.0668H19.9666C16.1228 43.0461 13.0022 46.1666 13.0022 50.0105Z" fill="#A259FF"/>
</svg>
