<svg width="40" height="40" viewBox="0 0 40 40" fill="none" xmlns="http://www.w3.org/2000/svg">
<path d="M26.3637 15.4546H12.7273H10.4546V17.7273V25.4546V27.7273H12.7273H26.3637H28.6364V25.4546V17.7273V15.4546H26.3637ZM26.3637 25.4546H12.7273V17.7273H26.3637V25.4546Z" fill="white"/>
<path d="M31.3636 40H7.72727C6.22045 40 5 38.7795 5 37.2727V2.72727C5 1.22045 6.22045 0 7.72727 0H24.0909L34.0909 10V37.2727C34.0909 38.7795 32.8705 40 31.3636 40Z" fill="#00AC47"/>
<path d="M24.0908 0L34.0908 10H24.0908V0Z" fill="#00832D"/>
<path d="M26.3637 15.4546H20.6819H18.4091H12.7273H10.4546V17.7273V20.9091V23.1819V26.3637V28.6364H12.7273H18.4091H20.6819H26.3637H28.6364V26.3637V23.1819V20.9091V17.7273V15.4546H26.3637ZM12.7273 17.7273H18.4091V20.9091H12.7273V17.7273ZM12.7273 26.3637V23.1819H18.4091V26.3637H12.7273ZM26.3637 26.3637H20.6819V23.1819H26.3637V26.3637ZM26.3637 20.9091H20.6819V17.7273H26.3637V20.9091Z" fill="white"/>
</svg>
