<svg width="100" height="100" viewBox="0 0 100 100" fill="none" xmlns="http://www.w3.org/2000/svg">
<g clip-path="url(#clip0_704_20930)">
<path d="M48.0399 2.8414L44.4907 99.2674H55.5094L51.8613 2.83893C51.8217 1.8118 50.9802 1 49.9506 1C48.921 1 48.0795 1.81427 48.0399 2.8414Z" fill="white" stroke="#222875" stroke-linecap="round" stroke-linejoin="round"/>
<path d="M93.159 10.4198C93.0006 9.41491 92.0552 8.72686 91.0503 8.89021L8.37046 21.983C7.36561 22.1438 6.68004 23.0868 6.84091 24.0917C6.98446 24.9975 7.76656 25.646 8.66004 25.646C8.75656 25.646 8.85308 25.6385 8.94961 25.6237L91.6295 12.5285C92.6343 12.3676 93.3199 11.4246 93.159 10.4198Z" fill="#FF584A" stroke="#222875" stroke-linecap="round" stroke-linejoin="round"/>
<path d="M50 23.2627C53.319 23.2627 56.0068 20.5748 56.0068 17.2558C56.0068 13.9369 53.319 11.249 50 11.249C46.681 11.249 43.9932 13.9369 43.9932 17.2558C43.9932 20.5748 46.681 23.2627 50 23.2627Z" fill="white" stroke="#222875" stroke-linecap="round" stroke-linejoin="round"/>
<path d="M24.5199 1.08691V15.5582" stroke="#222875" stroke-linecap="round" stroke-linejoin="round"/>
<path d="M29.9822 4.64062V15.5578" stroke="#222875" stroke-linecap="round" stroke-linejoin="round"/>
<path d="M19.0625 4.64062V15.5578" stroke="#222875" stroke-linecap="round" stroke-linejoin="round"/>
<path d="M0.5 99.2676H99.5" stroke="#222875" stroke-linecap="round" stroke-linejoin="round"/>
<path d="M78.0938 56.598C82.1379 56.6376 85.7143 58.5829 87.9863 61.5678C89.6668 59.4517 90.6865 56.7861 90.7162 53.8755C90.7905 46.9232 85.2069 41.2258 78.2521 41.1589C71.2999 41.0847 65.6024 46.6683 65.5356 53.6206C65.5084 56.5312 66.4711 59.2215 68.1046 61.3673C70.4386 58.4295 74.0546 56.5559 78.0938 56.598Z" fill="white"/>
<path d="M78.0938 56.598C82.1379 56.6376 85.7143 58.5829 87.9863 61.5678C89.6668 59.4517 90.6865 56.7861 90.7162 53.8755C90.7905 46.9232 85.2069 41.2258 78.2521 41.1589C71.2999 41.0847 65.6024 46.6683 65.5356 53.6206C65.5084 56.5312 66.4711 59.2215 68.1046 61.3673C70.4386 58.4295 74.0546 56.5559 78.0938 56.598ZM78.0938 56.598H78.0913" stroke="#222875" stroke-linecap="round" stroke-linejoin="round"/>
<path d="M77.9972 65.8423C82.0413 65.8819 85.6524 64.0157 87.9863 61.073C85.7118 58.0856 82.1379 56.1452 78.0937 56.1032C74.0496 56.0636 70.4385 57.9322 68.1046 60.8725C70.3791 63.8598 73.953 65.8027 77.9972 65.8423Z" fill="#FF584A" stroke="#222875" stroke-linecap="round" stroke-linejoin="round"/>
<path d="M79.3029 54.098C81.9715 53.4976 83.6434 50.8493 83.0429 48.1835C82.4401 45.5177 79.7935 43.8438 77.1271 44.4443C74.4586 45.047 72.7866 47.693 73.3872 50.361C73.9856 53.0269 76.6365 54.7007 79.3029 54.1002V54.098Z" fill="#FF584A" stroke="#222875" stroke-linecap="round" stroke-linejoin="round"/>
<path d="M96.2132 59.7138H60.1055L78.1581 14.8223L96.2132 59.7138Z" stroke="#222875" stroke-linecap="round" stroke-linejoin="round"/>
<path d="M60.1055 59.6377H96.2132V68.4264C96.2132 70.2183 94.7555 71.6761 92.9636 71.6761H63.3551C61.5632 71.6761 60.1055 70.2183 60.1055 68.4264V59.6377Z" fill="#CBEFFF" stroke="#222875" stroke-linecap="round" stroke-linejoin="round"/>
<path d="M21.8444 75.7771C28.8313 75.7771 34.4941 70.1068 34.4917 63.1199C34.4917 56.133 28.8214 50.4702 21.8345 50.4727C14.8451 50.4751 9.18478 56.1429 9.18726 63.1323C9.18726 70.1192 14.8575 75.782 21.8444 75.7795V75.7771Z" fill="#FF584A" stroke="#222875" stroke-linecap="round" stroke-linejoin="round"/>
<path d="M21.8445 73.7249C27.7028 73.7249 32.4498 68.9729 32.4474 63.1146C32.4474 57.2563 27.6954 52.5092 21.837 52.5117C15.9787 52.5117 11.2317 57.2637 11.2341 63.122C11.2341 68.9804 15.9861 73.7274 21.8445 73.7249Z" fill="white" stroke="#222875" stroke-linecap="round" stroke-linejoin="round"/>
<path d="M21.8369 54.8711V63.1203L27.6358 63.5955" stroke="#222875" stroke-linecap="round" stroke-linejoin="round"/>
<path d="M39.8946 67.7907H3.78687L21.842 23.7109L39.8946 67.7907Z" stroke="#222875" stroke-linecap="round" stroke-linejoin="round"/>
<path d="M3.78687 67.79H39.8946V76.5788C39.8946 78.3707 38.4369 79.8284 36.645 79.8284H7.03654C5.24464 79.8284 3.78687 78.3707 3.78687 76.5788V67.79Z" fill="#CBEFFF" stroke="#222875" stroke-linecap="round" stroke-linejoin="round"/>
<path d="M67.2285 88.1992H32.7715C31.2297 88.1992 29.9797 89.4491 29.9797 90.991V90.9935C29.9797 92.5354 31.2297 93.7853 32.7715 93.7853H67.2285C68.7704 93.7853 70.0203 92.5354 70.0203 90.9935V90.991C70.0203 89.4491 68.7704 88.1992 67.2285 88.1992Z" fill="white" stroke="#222875" stroke-linecap="round" stroke-linejoin="round"/>
<path d="M83.7813 93.6816H16.2162C14.6744 93.6816 13.4244 94.9316 13.4244 96.4734V96.4759C13.4244 98.0178 14.6744 99.2677 16.2162 99.2677H83.7813C85.3231 99.2677 86.5731 98.0178 86.5731 96.4759V96.4734C86.5731 94.9316 85.3231 93.6816 83.7813 93.6816Z" fill="#CBEFFF" stroke="#222875" stroke-linecap="round" stroke-linejoin="round"/>
</g>
<defs>
<clipPath id="clip0_704_20930">
<rect width="100" height="100" fill="white"/>
</clipPath>
</defs>
</svg>
