<svg width="100" height="100" viewBox="0 0 100 100" fill="none" xmlns="http://www.w3.org/2000/svg">
<g clip-path="url(#clip0_704_21704)">
<path d="M27.25 19.4502H23.5V35.3002H27.25V19.4502Z" fill="white" stroke="#222875" stroke-linecap="round" stroke-linejoin="round"/>
<path d="M72.6999 45.7501C71.3499 45.7501 70.0499 45.0501 69.3499 43.8001L50.3999 9.75012L27.1499 23.0501C25.2999 24.1001 22.9499 23.4501 21.8999 21.6001C20.8499 19.7501 21.4999 17.4001 23.3499 16.3501L49.9499 1.10012C50.8499 0.600118 51.8999 0.450118 52.8999 0.750118C53.8999 1.05012 54.6999 1.70012 55.1999 2.60012L76.0499 40.0501C77.0999 41.9001 76.3999 44.2501 74.5499 45.3001C73.9499 45.6501 73.2999 45.8001 72.6999 45.8001V45.7501Z" fill="#CBEFFF" stroke="#222875" stroke-linecap="round" stroke-linejoin="round"/>
<path d="M51.8499 12.3502C55.0999 12.3502 57.75 9.7002 57.75 6.4002C57.75 3.1002 55.0999 0.450195 51.8499 0.450195C48.5999 0.450195 45.95 3.1002 45.95 6.4002C45.95 9.7002 48.5999 12.3502 51.8499 12.3502Z" fill="white" stroke="#222875" stroke-linecap="round" stroke-linejoin="round"/>
<path d="M25.25 80.7001C33.95 80.7001 41 73.6501 41 64.9001C41 56.1501 33.95 49.1001 25.25 49.1001C16.55 49.1001 9.5 56.1501 9.5 64.9001C9.5 73.6501 16.55 80.7001 25.25 80.7001Z" fill="white" stroke="#222875" stroke-linecap="round" stroke-linejoin="round"/>
<path d="M30.6 64.4001H26.75C26.45 64.4001 26.2 64.1001 26.3 63.8001L28.05 57.5501C28.2 57.1001 27.6 56.7501 27.25 57.1001L19.45 64.5501C19.15 64.8501 19.35 65.3501 19.8 65.3501H23.65C23.95 65.3501 24.2 65.6501 24.1 65.9501L22.35 72.2001C22.2 72.6501 22.8 73.0001 23.15 72.6501L30.95 65.2001C31.25 64.9001 31.05 64.4001 30.65 64.4001H30.6Z" fill="#FF584A" stroke="#222875" stroke-linecap="round" stroke-linejoin="round"/>
<path d="M23.8999 38.1004L37.7999 44.2004L35.0499 50.4504C34.1999 52.4004 35.0499 54.6504 37.0499 55.5004L41.2999 45.7504C42.1499 43.8004 41.2999 41.5004 39.2999 40.6504L25.6999 34.6504L23.8999 38.0504V38.1004Z" fill="#CBEFFF" stroke="#222875" stroke-linecap="round" stroke-linejoin="round"/>
<path d="M13.3 44.2002L27.2 38.1002L25.4 34.7002L11.8 40.7002C9.84997 41.5502 8.94997 43.8502 9.79997 45.8002L14.05 55.5502C16 54.7002 16.85 52.4502 16.05 50.5002L13.3 44.2502V44.2002Z" fill="#CBEFFF" stroke="#222875" stroke-linecap="round" stroke-linejoin="round"/>
<path d="M32.2999 30.2503C32.2999 29.5503 31.7999 29.0503 31.0999 29.0003V28.0503C31.0999 27.2503 30.4499 26.5503 29.5999 26.5503H20.3499C19.5499 26.5503 18.8499 27.2003 18.8499 28.0503V29.0003C18.1999 29.0003 17.6499 29.6003 17.6499 30.2503C17.6499 30.9003 18.1499 31.4503 18.8499 31.5003V35.1003C18.8499 38.5003 21.5999 41.2503 24.9499 41.2503C28.2999 41.2503 31.0499 38.5003 31.0499 35.1003V31.5003C31.6999 31.5003 32.2499 30.9003 32.2499 30.2503H32.2999Z" fill="#CBEFFF" stroke="#222875" stroke-linecap="round" stroke-linejoin="round"/>
<path d="M27.15 54.05C26.35 55.65 24.1 55.65 23.3 54.05V36.65C23.3 35.6 24.1501 34.75 25.2001 34.75C26.2501 34.75 27.1 35.6 27.1 36.65V54.05H27.15Z" fill="#CBEFFF" stroke="#222875" stroke-linecap="round" stroke-linejoin="round"/>
<path d="M25.4001 21.0004C26.2501 21.0004 26.9501 20.3004 26.9501 19.4504C26.9501 18.6004 26.2501 17.9004 25.4001 17.9004C24.5501 17.9004 23.8501 18.6004 23.8501 19.4504C23.8501 20.3004 24.5501 21.0004 25.4001 21.0004Z" fill="white" stroke="#222875" stroke-linecap="round" stroke-linejoin="round"/>
<path d="M68.5 19.9001L82.65 13.3501" stroke="#222875" stroke-linecap="round" stroke-linejoin="round"/>
<path d="M70.1001 23.3502L77.0001 20.2002" stroke="#222875" stroke-linecap="round" stroke-linejoin="round"/>
<path d="M88.05 45.0503V91.8503H57.7V45.0503C57.7 36.7503 64.4 30.0503 72.65 30.0503H73.0999C81.3499 30.0503 88.05 36.7503 88.05 45.0503Z" fill="white" stroke="#222875" stroke-linecap="round" stroke-linejoin="round"/>
<path d="M91.8001 88.1001H53.9001L50.1001 91.9001V99.5001H95.5501V91.9001L91.7501 88.1001H91.8001Z" fill="#CBEFFF" stroke="#222875" stroke-linecap="round" stroke-linejoin="round"/>
<path d="M87.9001 50H65.3501V80.4H87.9001V50Z" fill="#CBEFFF" stroke="#222875" stroke-linecap="round" stroke-linejoin="round"/>
<path d="M99.5 99.5H0.5" stroke="#222875" stroke-linecap="round" stroke-linejoin="round"/>
</g>
<defs>
<clipPath id="clip0_704_21704">
<rect width="100" height="100" fill="white"/>
</clipPath>
</defs>
</svg>
