<svg width="150" height="100" viewBox="0 0 150 100" fill="none" xmlns="http://www.w3.org/2000/svg">
<path d="M87.3012 34.0159L95.9303 30.8029L87.3012 27.4982V23L102.081 28.967V32.6389L87.3012 38.6059V34.0159Z" fill="#A100FF"/>
<path d="M5.69155 62.4737C2.57038 62.4737 0 60.9132 0 57.4248V57.2412C0 53.0184 3.67197 51.5496 8.17013 51.5496H10.2815V50.7234C10.2815 48.9792 9.54712 47.9695 7.71114 47.9695C6.05875 47.9695 5.23256 48.8874 5.14076 50.1726H0.550796C0.917993 46.3171 3.94737 44.4811 7.98654 44.4811C12.1175 44.4811 15.1469 46.2253 15.1469 50.5398V62.1065H10.4651V60.087C9.54712 61.3721 7.98654 62.4737 5.69155 62.4737ZM10.2815 56.415V54.7626H8.35373C5.96695 54.7626 4.77356 55.4052 4.77356 56.9658V57.1494C4.77356 58.3428 5.50796 59.169 7.16034 59.169C8.81273 59.0772 10.2815 58.1592 10.2815 56.415ZM26.071 62.4737C21.2974 62.4737 17.8091 59.5362 17.8091 53.661V53.3856C17.8091 47.5105 21.481 44.3893 26.071 44.3893C30.0184 44.3893 33.2313 46.4089 33.5985 50.907H29.0086C28.7332 49.2546 27.8152 48.1531 26.1628 48.1531C24.1432 48.1531 22.6744 49.8054 22.6744 53.202V53.7528C22.6744 57.2412 23.9596 58.8018 26.1628 58.8018C27.8152 58.8018 29.0086 57.6084 29.284 55.6806H33.6903C33.4149 59.7198 30.7528 62.4737 26.071 62.4737ZM44.0637 62.4737C39.2901 62.4737 35.8017 59.5362 35.8017 53.661V53.3856C35.8017 47.5105 39.4737 44.3893 44.0637 44.3893C48.011 44.3893 51.224 46.4089 51.5912 50.907H47.0012C46.7258 49.2546 45.8078 48.1531 44.1554 48.1531C42.1359 48.1531 40.6671 49.8054 40.6671 53.202V53.7528C40.6671 57.2412 41.9523 58.8018 44.1554 58.8018C45.8078 58.8018 47.0012 57.6084 47.2766 55.6806H51.683C51.4076 59.7198 48.7454 62.4737 44.0637 62.4737ZM62.1481 62.4737C57.1909 62.4737 53.7944 59.5362 53.7944 53.7528V53.3856C53.7944 47.6023 57.3745 44.3893 62.0563 44.3893C66.3709 44.3893 69.951 46.7761 69.951 52.5594V54.6708H58.6597C58.8433 57.792 60.2203 58.9854 62.2399 58.9854C64.0759 58.9854 65.0857 57.9756 65.4529 56.7822H69.951C69.4002 59.9952 66.6463 62.4737 62.1481 62.4737ZM58.7515 51.4578H65.1775C65.0857 48.8874 63.8923 47.7859 61.9645 47.7859C60.4957 47.8777 59.1187 48.7038 58.7515 51.4578ZM72.8886 44.8483H77.754V47.4187C78.5802 45.7663 80.3244 44.4811 82.9865 44.4811C86.1077 44.4811 88.2191 46.4089 88.2191 50.5398V62.1065H83.3537V51.2742C83.3537 49.2546 82.5275 48.3367 80.7834 48.3367C79.131 48.3367 77.754 49.3464 77.754 51.5496V62.1065H72.8886V44.8483V44.8483ZM97.1236 39.6157V44.8483H100.428V48.4285H97.1236V56.5986C97.1236 57.8838 97.6744 58.5264 98.8678 58.5264C99.6022 58.5264 100.061 58.4346 100.52 58.251V62.0147C99.9694 62.1983 98.9596 62.3819 97.7662 62.3819C94.0025 62.3819 92.2583 60.6378 92.2583 57.1494V48.4285H90.2387V44.8483H92.2583V41.6353L97.1236 39.6157ZM118.605 62.1065H113.831V59.5362C113.005 61.1885 111.353 62.4737 108.782 62.4737C105.661 62.4737 103.366 60.546 103.366 56.5068V44.8483H108.231V55.8642C108.231 57.8838 109.058 58.8018 110.71 58.8018C112.362 58.8018 113.739 57.7002 113.739 55.5888V44.8483H118.605V62.1065ZM122.185 44.8483H127.05V48.0613C128.06 45.7663 129.712 44.6647 132.283 44.6647V49.4382C128.978 49.4382 127.05 50.448 127.05 53.2938V62.1983H122.185V44.8483ZM142.105 62.4737C137.148 62.4737 133.752 59.5362 133.752 53.7528V53.3856C133.752 47.6023 137.332 44.3893 142.013 44.3893C146.328 44.3893 149.908 46.7761 149.908 52.5594V54.6708H138.709C138.892 57.792 140.269 58.9854 142.289 58.9854C144.125 58.9854 145.135 57.9756 145.502 56.7822H150C149.266 59.9952 146.603 62.4737 142.105 62.4737ZM138.617 51.4578H145.135C145.043 48.8874 143.849 47.7859 141.922 47.7859C140.453 47.8777 139.076 48.7038 138.617 51.4578Z" fill="black"/>
</svg>
