<svg width="41" height="41" viewBox="0 0 41 41" fill="none" xmlns="http://www.w3.org/2000/svg">
<path d="M20.3805 0.63208C19.0905 0.63208 17.9033 1.34573 17.2926 2.48483C16.6887 3.62393 16.7574 5.01007 17.4779 6.08054L18.9738 4.59148C18.9258 4.44052 18.8983 4.28955 18.8983 4.13172C18.8983 3.31514 19.5571 2.65638 20.3737 2.65638C21.1902 2.65638 21.849 3.31514 21.849 4.13172C21.849 4.94831 21.1902 5.60706 20.3737 5.60706C20.2158 5.60706 20.0649 5.57962 19.9139 5.53158L18.418 7.02065C19.66 7.86468 21.3 7.81664 22.494 6.91085C23.688 6.00506 24.1684 4.43365 23.688 3.01321C23.2145 1.5859 21.8764 0.63208 20.3805 0.63208Z" fill="#34A853"/>
<path d="M18.9874 10.8223C18.9874 9.642 18.61 8.48917 17.8963 7.54907L15.9612 9.48417C16.5651 10.5958 16.3524 11.9682 15.4329 12.8397L16.4896 15.413C18.0404 14.4043 18.9874 12.675 18.9874 10.8223Z" fill="#FBBC04"/>
<path d="M13.5665 13.6013H13.5184C12.3313 13.6013 11.2746 12.8465 10.8903 11.7211C10.506 10.5957 10.8766 9.3537 11.8167 8.61946C12.7568 7.88522 14.0537 7.83719 15.0487 8.49595L16.9701 6.57457C15.1036 5.05806 12.4685 4.94141 10.4717 6.28637C8.47484 7.63133 7.5965 10.1154 8.29642 12.4142C8.99635 14.713 11.1167 16.2844 13.5184 16.2844C13.889 16.2844 14.2595 16.2501 14.6232 16.1746L13.5665 13.6013Z" fill="#EA4335"/>
<path d="M20.4492 15.8245C19.2346 15.8245 18.0269 16.0029 16.8672 16.346L18.4043 20.0995C19.0699 19.9348 19.7561 19.8525 20.4492 19.8525C24.4429 19.8525 27.8739 22.6728 28.6562 26.591C29.4316 30.5092 27.3387 34.4275 23.6538 35.9508C19.9688 37.4742 15.7144 36.1842 13.4979 32.8698C11.2815 29.5554 11.7069 25.1294 14.5272 22.3022C15.1174 21.7121 15.7899 21.218 16.5241 20.8269L15.0076 17.0871C9.3464 19.8593 6.66334 26.44 8.77685 32.3826C10.8904 38.3251 17.1211 41.7355 23.2626 40.3082C29.4042 38.8878 33.5008 33.0825 32.7871 26.8175C32.0735 20.5524 26.7691 15.8245 20.4629 15.8245H20.4492Z" fill="#4285F4"/>
</svg>
