<svg width="20" height="20" viewBox="0 0 16 16" xmlns="http://www.w3.org/2000/svg" role="graphics-symbol" aria-labelledby="message-group-icon-title-id" aria-hidden="false" color="var(--icon)" class="css-pfo72i e1bpwjla1"><title id="message-group-icon-title-id">message-group icon</title><path d="M7.7251 5.5C9.2251 5.5 10.4751 4.25 10.4751 2.75C10.4751 1.25 9.2251 0 7.7251 0C6.2251 0 4.9751 1.25 4.9751 2.75C4.9751 4.25 6.2251 5.5 7.7251 5.5ZM7.7251 1C8.6751 1 9.4751 1.8 9.4751 2.75C9.4751 3.7 8.6751 4.5 7.7251 4.5C6.7751 4.5 5.9751 3.7 5.9751 2.75C5.9751 1.8 6.7751 1 7.7251 1ZM4.7251 5.5C5.0251 5.5 5.2251 5.3 5.2251 5C5.2251 4.7 5.0251 4.5 4.7251 4.5C3.7751 4.5 2.9751 3.7 2.9751 2.75C2.9751 1.8 3.7751 1 4.7251 1C5.0251 1 5.2251 0.8 5.2251 0.5C5.2251 0.2 5.0251 0 4.7251 0C3.2251 0 1.9751 1.25 1.9751 2.75C1.9751 4.25 3.2251 5.5 4.7251 5.5ZM3.2251 6C1.8251 6 0.725098 7.15 0.725098 8.5V8.9C0.725098 9.2 0.925098 9.4 1.2251 9.4C1.5251 9.4 1.7251 9.2 1.7251 8.9V8.5C1.7251 7.65 2.4251 7 3.2251 7C3.5251 7 3.7251 6.8 3.7251 6.5C3.7251 6.2 3.5251 6 3.2251 6ZM11.7751 8H11.6751C11.4251 6.85 10.4251 6 9.2251 6H6.2251C4.8251 6 3.7251 7.15 3.7251 8.5V8.9C3.7251 9.2 3.9251 9.4 4.2251 9.4C4.5251 9.4 4.7251 9.2 4.7251 8.9V8.5C4.7251 7.65 5.4251 7 6.2251 7H9.2251C9.8751 7 10.4251 7.4 10.6751 8H9.7251C7.8251 8 6.2751 9.55 6.2751 11.45C6.2751 12.4 6.6751 13.3 7.3251 13.95V15.5C7.3251 15.65 7.4251 15.85 7.5751 15.9C7.6751 15.95 7.7251 16 7.8251 16C7.8751 16 7.9751 16 8.0251 15.95L10.3251 14.85H11.8251C13.7251 14.85 15.2751 13.3 15.2751 11.4C15.2751 9.5 13.6751 8 11.7751 8ZM11.7751 13.85H10.1751C10.1251 13.85 10.0251 13.85 9.9751 13.9L8.2751 14.7V13.7C8.2751 13.55 8.2251 13.4 8.0751 13.3C7.5251 12.85 7.1751 12.15 7.1751 11.45C7.1751 10.1 8.2751 9 9.6251 9H11.7751C13.1251 9 14.2251 10.1 14.2251 11.45C14.2251 12.8 13.1251 13.85 11.7751 13.85Z"></path></svg>