<svg width="20" height="20" viewBox="0 0 16 16" xmlns="http://www.w3.org/2000/svg" role="graphics-symbol" aria-labelledby="mobile-icon-title-id" aria-hidden="false" color="var(--icon)" class="css-pfo72i e1bpwjla1"><title id="mobile-icon-title-id">mobile icon</title><path d="M11.5 0H4.5C3.65 0 3 0.65 3 1.5V14.5C3 15.35 3.65 16 4.5 16H11.5C12.35 16 13 15.35 13 14.5V1.5C13 0.65 12.35 0 11.5 0ZM4.5 1H11.5C11.8 1 12 1.2 12 1.5V2H4V1.5C4 1.2 4.2 1 4.5 1ZM12 3V12H4V3H12ZM11.5 15H4.5C4.2 15 4 14.8 4 14.5V13H12V14.5C12 14.8 11.8 15 11.5 15ZM8 13.5C8.3 13.5 8.5 13.7 8.5 14C8.5 14.3 8.3 14.5 8 14.5C7.7 14.5 7.5 14.3 7.5 14C7.5 13.7 7.7 13.5 8 13.5Z"></path></svg>