<svg width="40" height="40" viewBox="0 0 40 40" fill="none" xmlns="http://www.w3.org/2000/svg">
<mask id="mask0_1005_36567" style="mask-type:alpha" maskUnits="userSpaceOnUse" x="6" y="2" width="28" height="36">
<path d="M21.5 3.5C21.5 2.67157 22.1716 2 23 2H32C32.8284 2 33.5 2.67157 33.5 3.5V36.5C33.5 37.3284 32.8284 38 32 38H8C7.17159 38 6.5 37.3284 6.5 36.5V21.5C6.5 20.6716 7.17159 20 8 20H14V12.5C14 11.6716 14.6716 11 15.5 11H21.5V3.5Z" fill="white"/>
</mask>
<g mask="url(#mask0_1005_36567)">
<path d="M33.5 2V38H21.5V2H33.5Z" fill="url(#paint0_linear_1005_36567)"/>
<g filter="url(#filter0_f_1005_36567)">
<path d="M26 12.6499V38.1499H14V11.1499H24.5C25.3284 11.1499 26 11.8215 26 12.6499Z" fill="black" fill-opacity="0.2"/>
</g>
<g filter="url(#filter1_f_1005_36567)">
<path d="M26 13.25V38.75H14V11.75H24.5C25.3284 11.75 26 12.4216 26 13.25Z" fill="black" fill-opacity="0.18"/>
</g>
<path d="M26 12.5V38H14V11H24.5C25.3284 11 26 11.6716 26 12.5Z" fill="url(#paint1_linear_1005_36567)"/>
<path d="M6.5 20V38H18.5V21.5C18.5 20.6716 17.8284 20 17 20H6.5Z" fill="url(#paint2_linear_1005_36567)"/>
</g>
<defs>
<filter id="filter0_f_1005_36567" x="13.2" y="10.3499" width="13.6" height="28.6" filterUnits="userSpaceOnUse" color-interpolation-filters="sRGB">
<feFlood flood-opacity="0" result="BackgroundImageFix"/>
<feBlend mode="normal" in="SourceGraphic" in2="BackgroundImageFix" result="shape"/>
<feGaussianBlur stdDeviation="0.4" result="effect1_foregroundBlur_1005_36567"/>
</filter>
<filter id="filter1_f_1005_36567" x="6" y="3.75" width="28" height="43" filterUnits="userSpaceOnUse" color-interpolation-filters="sRGB">
<feFlood flood-opacity="0" result="BackgroundImageFix"/>
<feBlend mode="normal" in="SourceGraphic" in2="BackgroundImageFix" result="shape"/>
<feGaussianBlur stdDeviation="4" result="effect1_foregroundBlur_1005_36567"/>
</filter>
<linearGradient id="paint0_linear_1005_36567" x1="19.5" y1="2" x2="35.3245" y2="35.5425" gradientUnits="userSpaceOnUse">
<stop stop-color="#E6AD10"/>
<stop offset="1" stop-color="#C87E0E"/>
</linearGradient>
<linearGradient id="paint1_linear_1005_36567" x1="13.999" y1="11" x2="27.3072" y2="36.8098" gradientUnits="userSpaceOnUse">
<stop stop-color="#F6D751"/>
<stop offset="1" stop-color="#E6AD10"/>
</linearGradient>
<linearGradient id="paint2_linear_1005_36567" x1="6.49903" y1="20" x2="13.8531" y2="37.4291" gradientUnits="userSpaceOnUse">
<stop stop-color="#F9E589"/>
<stop offset="1" stop-color="#F6D751"/>
</linearGradient>
</defs>
</svg>
