<svg width="100" height="100" viewBox="0 0 100 100" fill="none" xmlns="http://www.w3.org/2000/svg">
<path d="M79.0226 28.6812L46.7618 16.2974C45.3714 15.7637 43.8116 16.4582 43.2779 17.8486L24.531 66.686C23.9972 68.0763 24.6917 69.6362 26.0821 70.1699L58.3429 82.5536C59.7333 83.0874 61.2931 82.3929 61.8268 81.0025L80.5737 32.1651C81.1075 30.7747 80.413 29.2149 79.0226 28.6812Z" fill="white" stroke="#222875" stroke-width="1.09022" stroke-miterlimit="10"/>
<path d="M71.6496 42.8859C74.3043 35.8747 70.7957 28.0304 63.7904 25.3428L58.9304 38.005L71.6496 42.8859Z" fill="#FF584A" stroke="#222875" stroke-width="1.09022" stroke-miterlimit="10"/>
<path d="M54.122 40.1441L58.9819 27.4819C51.9557 24.7852 44.0755 28.2939 41.3789 35.3201C38.6822 42.3464 42.1908 50.2266 49.2171 52.9232C56.2434 55.6199 64.1235 52.1112 66.8202 45.085C66.8262 45.064 66.8352 45.046 66.8412 45.025L54.122 40.1441Z" fill="#CBEFFF" stroke="#222875" stroke-width="1.09022" stroke-miterlimit="10"/>
<path d="M26.6959 40.752H13.5059C11.4359 40.752 9.75586 42.432 9.75586 44.502V88.842C9.75586 90.912 11.4359 92.592 13.5059 92.592H83.9609C86.0309 92.592 87.7109 90.912 87.7109 88.842V52.0895C87.7109 50.0195 86.0309 48.3395 83.9609 48.3395H37.2609C36.2509 48.3395 35.2834 47.932 34.5784 47.2095L29.3784 41.882C28.6734 41.1595 27.7059 40.752 26.6959 40.752Z" fill="#CBEFFF" stroke="#222875" stroke-miterlimit="10"/>
<path d="M40.0979 62.7773H42.3479C42.7629 62.7773 43.0979 63.1123 43.0979 63.5273V77.8773H39.3479V63.5273C39.3479 63.1123 39.6829 62.7773 40.0979 62.7773Z" fill="#FF584A" stroke="#222875" stroke-miterlimit="10"/>
<path d="M55.0229 66.5547H57.2729C57.6879 66.5547 58.0229 66.8897 58.0229 67.3047V77.8772H54.2729V67.3047C54.2729 66.8897 54.6079 66.5547 55.0229 66.5547Z" fill="#FF584A" stroke="#222875" stroke-miterlimit="10"/>
<path d="M47.5605 70.3271H49.8105C50.2255 70.3271 50.5605 70.6621 50.5605 71.0771V77.8772H46.8105V71.0771C46.8105 70.6621 47.1455 70.3271 47.5605 70.3271Z" fill="#FF584A" stroke="#222875" stroke-miterlimit="10"/>
</svg>
