<svg width="40" height="40" viewBox="0 0 40 40" fill="none" xmlns="http://www.w3.org/2000/svg">
<g clip-path="url(#clip0)">
<path d="M19.0149 26.0012H20.9851V20.6281H25.9403V18.7176H20.9851V13.3445H19.0149V18.7176H14.1194V20.6281H19.0149V26.0012Z" fill="#E8762D"/>
<path d="M9.88059 33.7624H11.5522V28.9863H15.9701V27.4938H11.5522V22.6579H9.88059V27.4938H5.46268V28.9863H9.88059V33.7624Z" fill="#C72037"/>
<path d="M28.4478 16.5087H30.1194V11.7326H34.597V10.2997H30.1194V5.4639H28.4478V10.2997H24.0298V11.7326H28.4478V16.5087Z" fill="#5B879B"/>
<path d="M19.3134 37.5236H20.7463V34.1206H23.7911V32.8669H20.7463V29.4639H19.3134V32.8669H16.3284V34.1206H19.3134V37.5236Z" fill="#5C6692"/>
<path d="M9.94029 16.5087H11.4925V11.6729H15.9701V10.2997H11.4925V5.4639H9.94029V10.2997H5.46268V11.6729H9.94029V16.5087Z" fill="#EB9129"/>
<path d="M33.5224 23.6729H34.9552V20.3296H38V19.0161H34.9552V15.6729H33.5224V19.0161H30.5373V20.3296H33.5224V23.6729Z" fill="#5C6692"/>
<path fill-rule="evenodd" clip-rule="evenodd" d="M28.4478 33.7624H30.1194V28.9863H34.597V27.4938H30.1194V22.6579H28.4478V27.4938H24.0298V28.9863H28.4478V33.7624Z" fill="#1F457E"/>
<path d="M23.5522 6.29985V5.28492H20.5672V2.00134H19.4925V5.28492H16.5075V6.29985H19.4925V9.58343H20.5672V6.29985H23.5522ZM4.98507 23.4342H6.0597V20.1506H9.04478V19.1357H6.0597V15.9118H4.98507V19.1357H2V20.2103L4.98507 20.1506V23.4342Z" fill="#7199A6"/>
</g>
<defs>
<clipPath id="clip0">
<rect width="36" height="35.5248" fill="white" transform="translate(2 2)"/>
</clipPath>
</defs>
</svg>
