<svg width="41" height="40" viewBox="0 0 41 40" fill="none" xmlns="http://www.w3.org/2000/svg">
<path d="M20.2167 40C31.2624 40 40.2167 31.0458 40.2167 20C40.2167 8.9543 31.2624 -1.75752e-06 20.2167 -1.75752e-06C9.17098 -1.75752e-06 0.216675 8.9543 0.216675 20C0.216675 31.0458 9.17098 40 20.2167 40Z" fill="#1AB4D7"/>
<path d="M9.79039 19.9423L13.2036 16.5206C13.3167 16.4053 13.3799 16.2526 13.3799 16.0907C13.3799 15.7532 13.1055 15.4791 12.768 15.4791C12.6036 15.4791 12.4495 15.5436 12.3333 15.6612C12.3329 15.6619 8.92318 19.0697 8.92318 19.0697L5.49784 15.6561C5.3821 15.542 5.22873 15.4791 5.06611 15.4791C4.72902 15.4791 4.45461 15.7531 4.45461 16.0902C4.45461 16.2547 4.52027 16.409 4.63812 16.5253L8.0508 19.9375L4.63989 23.3548C4.51999 23.4729 4.45461 23.6275 4.45461 23.7927C4.45461 24.1302 4.72902 24.4039 5.06611 24.4039C5.229 24.4039 5.38251 24.3407 5.49784 24.2253L8.91787 20.8099L12.3249 24.2128C12.4458 24.3378 12.6016 24.4043 12.768 24.4043C13.1052 24.4043 13.3795 24.1302 13.3795 23.7927C13.3795 23.6299 13.3164 23.4769 13.2016 23.3616L9.79039 19.9423Z" fill="white"/>
<path d="M30.0812 19.9415C30.0812 20.5543 30.5795 21.0527 31.193 21.0527C31.8051 21.0527 32.3036 20.5543 32.3036 19.9415C32.3036 19.3285 31.8051 18.8301 31.193 18.8301C30.5795 18.8301 30.0812 19.3285 30.0812 19.9415Z" fill="white"/>
<path d="M27.9734 19.9411C27.9734 18.1666 29.417 16.7227 31.1918 16.7227C32.9657 16.7227 34.4096 18.1666 34.4096 19.9411C34.4096 21.7153 32.9657 23.1585 31.1918 23.1585C29.417 23.1585 27.9734 21.7153 27.9734 19.9411V19.9411ZM26.7074 19.9411C26.7074 22.4134 28.7191 24.4248 31.1918 24.4248C33.6644 24.4248 35.6771 22.4134 35.6771 19.9411C35.6771 17.4685 33.6644 15.4566 31.1918 15.4566C28.7191 15.4566 26.7074 17.4685 26.7074 19.9411Z" fill="white"/>
<path d="M26.389 15.5336L26.2009 15.533C25.636 15.533 25.0913 15.7112 24.6363 16.0618C24.5763 15.7874 24.3311 15.581 24.039 15.581C23.7028 15.581 23.4334 15.8504 23.4326 16.1873C23.4326 16.1885 23.4347 23.74 23.4347 23.74C23.4355 24.0763 23.7098 24.3496 24.0462 24.3496C24.3826 24.3496 24.6568 24.0763 24.6577 23.7393C24.6577 23.7378 24.6579 19.0953 24.6579 19.0953C24.6579 17.5474 24.7995 16.9223 26.1253 16.7566C26.2479 16.7414 26.3812 16.7438 26.3817 16.7438C26.7445 16.7313 27.0023 16.482 27.0023 16.1451C27.0023 15.8079 26.7271 15.5336 26.389 15.5336" fill="white"/>
<path d="M14.6466 19.203C14.6466 19.1862 14.6479 19.1688 14.6487 19.1516C15.0038 17.7481 16.2749 16.7095 17.7887 16.7095C19.3208 16.7095 20.6036 17.7736 20.9404 19.203H14.6466ZM22.1928 19.0875C21.9292 17.8398 21.2462 16.8149 20.206 16.1568C18.6855 15.1914 16.6777 15.2448 15.2091 16.2892C14.0111 17.1415 13.3196 18.5356 13.3196 19.9717C13.3196 20.3318 13.363 20.6953 13.4533 21.0531C13.9057 22.8325 15.4354 24.1795 17.2593 24.4028C17.8005 24.4683 18.3273 24.437 18.8728 24.2957C19.3415 24.1817 19.7951 23.9915 20.213 23.7237C20.6468 23.4449 21.0092 23.0772 21.3601 22.637C21.3672 22.6289 21.3743 22.6218 21.3814 22.6133C21.625 22.3112 21.5798 21.8815 21.3122 21.6765C21.0864 21.5034 20.7074 21.4333 20.4092 21.8152C20.3451 21.9065 20.2736 22.0005 20.1948 22.0944C19.9577 22.3565 19.6635 22.6103 19.3109 22.8073C18.8623 23.0469 18.3511 23.1839 17.8077 23.1869C16.0289 23.1671 15.0771 21.9255 14.7385 21.0392C14.6793 20.8738 14.6338 20.7021 14.602 20.5253C14.5978 20.4922 14.5948 20.4603 14.5935 20.4309C14.9613 20.4309 20.9768 20.4299 20.9768 20.4299C21.8519 20.4115 22.3229 19.7938 22.1928 19.0875Z" fill="white"/>
</svg>
